<?xml version="1.0" standalone="no"?>
<!DOCTYPE svg PUBLIC "-//W3C//DTD SVG 20010904//EN"
 "http://www.w3.org/TR/2001/REC-SVG-20010904/DTD/svg10.dtd">
<svg version="1.0" xmlns="http://www.w3.org/2000/svg"
 width="999.000000pt" height="999.000000pt" viewBox="0 0 999.000000 999.000000"
 preserveAspectRatio="xMidYMid meet">
<metadata>
Created by potrace 1.11, written by Peter Selinger 2001-2013
</metadata>
<g transform="translate(0.000000,999.000000) scale(0.100000,-0.100000)"
fill="#000000" stroke="none">
<path d="M3405 8633 c-220 -46 -401 -222 -495 -483 -158 -441 -100 -1036 150
-1545 132 -269 294 -473 487 -611 146 -105 245 -143 393 -151 124 -7 184 4
276 49 188 92 331 304 399 593 63 270 57 574 -20 900 -166 708 -648 1261
-1093 1254 -42 -1 -86 -3 -97 -6z"/>
<path d="M6480 8614 c-88 -26 -178 -71 -265 -132 -56 -40 -225 -206 -271 -266
-16 -22 -38 -51 -50 -65 -32 -40 -107 -168 -159 -272 -175 -346 -266 -791
-236 -1149 33 -389 175 -682 396 -815 89 -53 170 -75 279 -75 203 0 380 86
577 280 282 279 457 638 551 1135 19 102 23 153 23 340 0 243 -12 333 -65 497
-27 85 -110 265 -129 278 -4 3 -15 16 -24 29 -34 51 -104 116 -168 157 -131
85 -296 106 -459 58z"/>
<path d="M1600 6657 c-176 -60 -295 -195 -363 -412 -39 -125 -50 -227 -44
-408 9 -277 62 -484 199 -777 33 -70 141 -258 170 -295 217 -278 344 -392 544
-489 128 -62 167 -71 304 -71 142 0 202 16 295 81 58 40 73 54 131 135 148
201 193 550 118 914 -36 175 -142 452 -236 615 -125 218 -293 416 -456 537
-20 15 -39 31 -42 34 -11 13 -136 81 -191 104 -144 61 -309 73 -429 32z"/>
<path d="M8220 6659 c-214 -63 -401 -200 -611 -449 -200 -237 -367 -617 -430
-980 -19 -109 -16 -396 5 -490 39 -174 91 -281 187 -384 55 -58 83 -79 151
-112 l83 -39 130 0 c110 0 141 4 200 24 72 24 229 105 278 144 238 186 396
383 541 675 138 279 207 559 207 842 0 200 -29 348 -97 482 -43 85 -43 85
-120 164 -62 63 -130 105 -213 130 -67 20 -231 17 -311 -7z"/>
<path d="M5014 5810 c-92 -19 -222 -118 -459 -351 -93 -91 -235 -229 -315
-305 -739 -711 -1145 -1160 -1472 -1629 -137 -196 -307 -503 -378 -680 -17
-44 -37 -94 -45 -111 -20 -47 -82 -269 -99 -359 -19 -96 -36 -264 -36 -347 0
-33 7 -108 16 -166 82 -554 517 -979 1134 -1108 107 -23 455 -26 570 -6 366
66 613 211 855 506 54 65 206 294 240 359 27 52 52 85 58 76 2 -2 20 -33 39
-69 98 -177 246 -378 373 -505 258 -257 536 -369 950 -382 323 -10 596 58 852
214 262 158 448 372 555 637 123 304 115 656 -24 1086 -67 207 -217 510 -362
733 -56 86 -264 378 -275 387 -4 3 -22 25 -41 50 -19 25 -59 74 -88 110 -30
36 -63 76 -75 90 -34 41 -139 162 -187 214 -136 150 -209 225 -450 466 -651
652 -1026 1010 -1057 1010 -7 0 -13 4 -13 8 0 16 -128 71 -176 76 -27 3 -68 1
-90 -4z"/>
</g>
</svg>
